<?xml version="1.0" encoding="utf-8" standalone="no"?>
<!DOCTYPE svg PUBLIC "-//W3C//DTD SVG 1.1//EN"
  "http://www.w3.org/Graphics/SVG/1.1/DTD/svg11.dtd">
<!-- Created with matplotlib (https://matplotlib.org/) -->
<svg height="288pt" version="1.1" viewBox="0 0 432 288" width="432pt" xmlns="http://www.w3.org/2000/svg" xmlns:xlink="http://www.w3.org/1999/xlink">
 <metadata>
  <rdf:RDF xmlns:cc="http://creativecommons.org/ns#" xmlns:dc="http://purl.org/dc/elements/1.1/" xmlns:rdf="http://www.w3.org/1999/02/22-rdf-syntax-ns#">
   <cc:Work>
    <dc:type rdf:resource="http://purl.org/dc/dcmitype/StillImage"/>
    <dc:date>2021-11-29T19:43:37.289545</dc:date>
    <dc:format>image/svg+xml</dc:format>
    <dc:creator>
     <cc:Agent>
      <dc:title>Matplotlib v3.3.4, https://matplotlib.org/</dc:title>
     </cc:Agent>
    </dc:creator>
   </cc:Work>
  </rdf:RDF>
 </metadata>
 <defs>
  <style type="text/css">*{stroke-linecap:butt;stroke-linejoin:round;}</style>
 </defs>
 <g id="figure_1">
  <g id="patch_1">
   <path d="M 0 288 
L 432 288 
L 432 0 
L 0 0 
z
" style="fill:#ffffff;"/>
  </g>
  <g id="axes_1">
   <g id="patch_2">
    <path d="M 54 256.32 
L 388.8 256.32 
L 388.8 34.56 
L 54 34.56 
z
" style="fill:#ffffff;"/>
   </g>
   <g id="matplotlib.axis_1">
    <g id="xtick_1">
     <g id="line2d_1">
      <path clip-path="url(#p5726e41d90)" d="M 140.705357 256.32 
L 140.705357 34.56 
" style="fill:none;stroke:#b0b0b0;stroke-dasharray:0.8,1.32;stroke-dashoffset:0;stroke-width:0.8;"/>
     </g>
     <g id="line2d_2">
      <defs>
       <path d="M 0 0 
L 0 3.5 
" id="m5a26d7c86e" style="stroke:#000000;stroke-width:0.8;"/>
      </defs>
      <g>
       <use style="stroke:#000000;stroke-width:0.8;" x="140.705357" xlink:href="#m5a26d7c86e" y="256.32"/>
      </g>
     </g>
     <g id="text_1">
      <!-- $\mathdefault{10^{-1}}$ -->
      <g transform="translate(132.480357 268.638906)scale(0.07 -0.07)">
       <defs>
        <path d="M 12.40625 8.296875 
L 28.515625 8.296875 
L 28.515625 63.921875 
L 10.984375 60.40625 
L 10.984375 69.390625 
L 28.421875 72.90625 
L 38.28125 72.90625 
L 38.28125 8.296875 
L 54.390625 8.296875 
L 54.390625 0 
L 12.40625 0 
z
" id="DejaVuSans-49"/>
        <path d="M 31.78125 66.40625 
Q 24.171875 66.40625 20.328125 58.90625 
Q 16.5 51.421875 16.5 36.375 
Q 16.5 21.390625 20.328125 13.890625 
Q 24.171875 6.390625 31.78125 6.390625 
Q 39.453125 6.390625 43.28125 13.890625 
Q 47.125 21.390625 47.125 36.375 
Q 47.125 51.421875 43.28125 58.90625 
Q 39.453125 66.40625 31.78125 66.40625 
z
M 31.78125 74.21875 
Q 44.046875 74.21875 50.515625 64.515625 
Q 56.984375 54.828125 56.984375 36.375 
Q 56.984375 17.96875 50.515625 8.265625 
Q 44.046875 -1.421875 31.78125 -1.421875 
Q 19.53125 -1.421875 13.0625 8.265625 
Q 6.59375 17.96875 6.59375 36.375 
Q 6.59375 54.828125 13.0625 64.515625 
Q 19.53125 74.21875 31.78125 74.21875 
z
" id="DejaVuSans-48"/>
        <path d="M 10.59375 35.5 
L 73.1875 35.5 
L 73.1875 27.203125 
L 10.59375 27.203125 
z
" id="DejaVuSans-8722"/>
       </defs>
       <use transform="translate(0 0.684375)" xlink:href="#DejaVuSans-49"/>
       <use transform="translate(63.623047 0.684375)" xlink:href="#DejaVuSans-48"/>
       <use transform="translate(128.203125 38.965625)scale(0.7)" xlink:href="#DejaVuSans-8722"/>
       <use transform="translate(186.855469 38.965625)scale(0.7)" xlink:href="#DejaVuSans-49"/>
      </g>
     </g>
    </g>
    <g id="xtick_2">
     <g id="line2d_3">
      <path clip-path="url(#p5726e41d90)" d="M 264.752678 256.32 
L 264.752678 34.56 
" style="fill:none;stroke:#b0b0b0;stroke-dasharray:0.8,1.32;stroke-dashoffset:0;stroke-width:0.8;"/>
     </g>
     <g id="line2d_4">
      <g>
       <use style="stroke:#000000;stroke-width:0.8;" x="264.752678" xlink:href="#m5a26d7c86e" y="256.32"/>
      </g>
     </g>
     <g id="text_2">
      <!-- $\mathdefault{10^{0}}$ -->
      <g transform="translate(258.592678 268.638906)scale(0.07 -0.07)">
       <use transform="translate(0 0.765625)" xlink:href="#DejaVuSans-49"/>
       <use transform="translate(63.623047 0.765625)" xlink:href="#DejaVuSans-48"/>
       <use transform="translate(128.203125 39.046875)scale(0.7)" xlink:href="#DejaVuSans-48"/>
      </g>
     </g>
    </g>
    <g id="xtick_3">
     <g id="line2d_5">
      <path clip-path="url(#p5726e41d90)" d="M 388.8 256.32 
L 388.8 34.56 
" style="fill:none;stroke:#b0b0b0;stroke-dasharray:0.8,1.32;stroke-dashoffset:0;stroke-width:0.8;"/>
     </g>
     <g id="line2d_6">
      <g>
       <use style="stroke:#000000;stroke-width:0.8;" x="388.8" xlink:href="#m5a26d7c86e" y="256.32"/>
      </g>
     </g>
     <g id="text_3">
      <!-- $\mathdefault{10^{1}}$ -->
      <g transform="translate(382.64 268.638906)scale(0.07 -0.07)">
       <use transform="translate(0 0.684375)" xlink:href="#DejaVuSans-49"/>
       <use transform="translate(63.623047 0.684375)" xlink:href="#DejaVuSans-48"/>
       <use transform="translate(128.203125 38.965625)scale(0.7)" xlink:href="#DejaVuSans-49"/>
      </g>
     </g>
    </g>
    <g id="xtick_4">
     <g id="line2d_7">
      <defs>
       <path d="M 0 0 
L 0 2 
" id="me9e01be242" style="stroke:#000000;stroke-width:0.6;"/>
      </defs>
      <g>
       <use style="stroke:#000000;stroke-width:0.6;" x="54" xlink:href="#me9e01be242" y="256.32"/>
      </g>
     </g>
    </g>
    <g id="xtick_5">
     <g id="line2d_8">
      <g>
       <use style="stroke:#000000;stroke-width:0.6;" x="75.843649" xlink:href="#me9e01be242" y="256.32"/>
      </g>
     </g>
    </g>
    <g id="xtick_6">
     <g id="line2d_9">
      <g>
       <use style="stroke:#000000;stroke-width:0.6;" x="91.341965" xlink:href="#me9e01be242" y="256.32"/>
      </g>
     </g>
    </g>
    <g id="xtick_7">
     <g id="line2d_10">
      <g>
       <use style="stroke:#000000;stroke-width:0.6;" x="103.363392" xlink:href="#me9e01be242" y="256.32"/>
      </g>
     </g>
    </g>
    <g id="xtick_8">
     <g id="line2d_11">
      <g>
       <use style="stroke:#000000;stroke-width:0.6;" x="113.185614" xlink:href="#me9e01be242" y="256.32"/>
      </g>
     </g>
    </g>
    <g id="xtick_9">
     <g id="line2d_12">
      <g>
       <use style="stroke:#000000;stroke-width:0.6;" x="121.490184" xlink:href="#me9e01be242" y="256.32"/>
      </g>
     </g>
    </g>
    <g id="xtick_10">
     <g id="line2d_13">
      <g>
       <use style="stroke:#000000;stroke-width:0.6;" x="128.683929" xlink:href="#me9e01be242" y="256.32"/>
      </g>
     </g>
    </g>
    <g id="xtick_11">
     <g id="line2d_14">
      <g>
       <use style="stroke:#000000;stroke-width:0.6;" x="135.029263" xlink:href="#me9e01be242" y="256.32"/>
      </g>
     </g>
    </g>
    <g id="xtick_12">
     <g id="line2d_15">
      <g>
       <use style="stroke:#000000;stroke-width:0.6;" x="178.047322" xlink:href="#me9e01be242" y="256.32"/>
      </g>
     </g>
    </g>
    <g id="xtick_13">
     <g id="line2d_16">
      <g>
       <use style="stroke:#000000;stroke-width:0.6;" x="199.890971" xlink:href="#me9e01be242" y="256.32"/>
      </g>
     </g>
    </g>
    <g id="xtick_14">
     <g id="line2d_17">
      <g>
       <use style="stroke:#000000;stroke-width:0.6;" x="215.389286" xlink:href="#me9e01be242" y="256.32"/>
      </g>
     </g>
    </g>
    <g id="xtick_15">
     <g id="line2d_18">
      <g>
       <use style="stroke:#000000;stroke-width:0.6;" x="227.410714" xlink:href="#me9e01be242" y="256.32"/>
      </g>
     </g>
    </g>
    <g id="xtick_16">
     <g id="line2d_19">
      <g>
       <use style="stroke:#000000;stroke-width:0.6;" x="237.232935" xlink:href="#me9e01be242" y="256.32"/>
      </g>
     </g>
    </g>
    <g id="xtick_17">
     <g id="line2d_20">
      <g>
       <use style="stroke:#000000;stroke-width:0.6;" x="245.537505" xlink:href="#me9e01be242" y="256.32"/>
      </g>
     </g>
    </g>
    <g id="xtick_18">
     <g id="line2d_21">
      <g>
       <use style="stroke:#000000;stroke-width:0.6;" x="252.731251" xlink:href="#me9e01be242" y="256.32"/>
      </g>
     </g>
    </g>
    <g id="xtick_19">
     <g id="line2d_22">
      <g>
       <use style="stroke:#000000;stroke-width:0.6;" x="259.076584" xlink:href="#me9e01be242" y="256.32"/>
      </g>
     </g>
    </g>
    <g id="xtick_20">
     <g id="line2d_23">
      <g>
       <use style="stroke:#000000;stroke-width:0.6;" x="302.094643" xlink:href="#me9e01be242" y="256.32"/>
      </g>
     </g>
    </g>
    <g id="xtick_21">
     <g id="line2d_24">
      <g>
       <use style="stroke:#000000;stroke-width:0.6;" x="323.938292" xlink:href="#me9e01be242" y="256.32"/>
      </g>
     </g>
    </g>
    <g id="xtick_22">
     <g id="line2d_25">
      <g>
       <use style="stroke:#000000;stroke-width:0.6;" x="339.436608" xlink:href="#me9e01be242" y="256.32"/>
      </g>
     </g>
    </g>
    <g id="xtick_23">
     <g id="line2d_26">
      <g>
       <use style="stroke:#000000;stroke-width:0.6;" x="351.458035" xlink:href="#me9e01be242" y="256.32"/>
      </g>
     </g>
    </g>
    <g id="xtick_24">
     <g id="line2d_27">
      <g>
       <use style="stroke:#000000;stroke-width:0.6;" x="361.280257" xlink:href="#me9e01be242" y="256.32"/>
      </g>
     </g>
    </g>
    <g id="xtick_25">
     <g id="line2d_28">
      <g>
       <use style="stroke:#000000;stroke-width:0.6;" x="369.584827" xlink:href="#me9e01be242" y="256.32"/>
      </g>
     </g>
    </g>
    <g id="xtick_26">
     <g id="line2d_29">
      <g>
       <use style="stroke:#000000;stroke-width:0.6;" x="376.778572" xlink:href="#me9e01be242" y="256.32"/>
      </g>
     </g>
    </g>
    <g id="xtick_27">
     <g id="line2d_30">
      <g>
       <use style="stroke:#000000;stroke-width:0.6;" x="383.123906" xlink:href="#me9e01be242" y="256.32"/>
      </g>
     </g>
    </g>
    <g id="text_4">
     <!-- Correlation time -->
     <g transform="translate(180.946094 281.693125)scale(0.1 -0.1)">
      <defs>
       <path d="M 64.40625 67.28125 
L 64.40625 56.890625 
Q 59.421875 61.53125 53.78125 63.8125 
Q 48.140625 66.109375 41.796875 66.109375 
Q 29.296875 66.109375 22.65625 58.46875 
Q 16.015625 50.828125 16.015625 36.375 
Q 16.015625 21.96875 22.65625 14.328125 
Q 29.296875 6.6875 41.796875 6.6875 
Q 48.140625 6.6875 53.78125 8.984375 
Q 59.421875 11.28125 64.40625 15.921875 
L 64.40625 5.609375 
Q 59.234375 2.09375 53.4375 0.328125 
Q 47.65625 -1.421875 41.21875 -1.421875 
Q 24.65625 -1.421875 15.125 8.703125 
Q 5.609375 18.84375 5.609375 36.375 
Q 5.609375 53.953125 15.125 64.078125 
Q 24.65625 74.21875 41.21875 74.21875 
Q 47.75 74.21875 53.53125 72.484375 
Q 59.328125 70.75 64.40625 67.28125 
z
" id="DejaVuSans-67"/>
       <path d="M 30.609375 48.390625 
Q 23.390625 48.390625 19.1875 42.75 
Q 14.984375 37.109375 14.984375 27.296875 
Q 14.984375 17.484375 19.15625 11.84375 
Q 23.34375 6.203125 30.609375 6.203125 
Q 37.796875 6.203125 41.984375 11.859375 
Q 46.1875 17.53125 46.1875 27.296875 
Q 46.1875 37.015625 41.984375 42.703125 
Q 37.796875 48.390625 30.609375 48.390625 
z
M 30.609375 56 
Q 42.328125 56 49.015625 48.375 
Q 55.71875 40.765625 55.71875 27.296875 
Q 55.71875 13.875 49.015625 6.21875 
Q 42.328125 -1.421875 30.609375 -1.421875 
Q 18.84375 -1.421875 12.171875 6.21875 
Q 5.515625 13.875 5.515625 27.296875 
Q 5.515625 40.765625 12.171875 48.375 
Q 18.84375 56 30.609375 56 
z
" id="DejaVuSans-111"/>
       <path d="M 41.109375 46.296875 
Q 39.59375 47.171875 37.8125 47.578125 
Q 36.03125 48 33.890625 48 
Q 26.265625 48 22.1875 43.046875 
Q 18.109375 38.09375 18.109375 28.8125 
L 18.109375 0 
L 9.078125 0 
L 9.078125 54.6875 
L 18.109375 54.6875 
L 18.109375 46.1875 
Q 20.953125 51.171875 25.484375 53.578125 
Q 30.03125 56 36.53125 56 
Q 37.453125 56 38.578125 55.875 
Q 39.703125 55.765625 41.0625 55.515625 
z
" id="DejaVuSans-114"/>
       <path d="M 56.203125 29.59375 
L 56.203125 25.203125 
L 14.890625 25.203125 
Q 15.484375 15.921875 20.484375 11.0625 
Q 25.484375 6.203125 34.421875 6.203125 
Q 39.59375 6.203125 44.453125 7.46875 
Q 49.3125 8.734375 54.109375 11.28125 
L 54.109375 2.78125 
Q 49.265625 0.734375 44.1875 -0.34375 
Q 39.109375 -1.421875 33.890625 -1.421875 
Q 20.796875 -1.421875 13.15625 6.1875 
Q 5.515625 13.8125 5.515625 26.8125 
Q 5.515625 40.234375 12.765625 48.109375 
Q 20.015625 56 32.328125 56 
Q 43.359375 56 49.78125 48.890625 
Q 56.203125 41.796875 56.203125 29.59375 
z
M 47.21875 32.234375 
Q 47.125 39.59375 43.09375 43.984375 
Q 39.0625 48.390625 32.421875 48.390625 
Q 24.90625 48.390625 20.390625 44.140625 
Q 15.875 39.890625 15.1875 32.171875 
z
" id="DejaVuSans-101"/>
       <path d="M 9.421875 75.984375 
L 18.40625 75.984375 
L 18.40625 0 
L 9.421875 0 
z
" id="DejaVuSans-108"/>
       <path d="M 34.28125 27.484375 
Q 23.390625 27.484375 19.1875 25 
Q 14.984375 22.515625 14.984375 16.5 
Q 14.984375 11.71875 18.140625 8.90625 
Q 21.296875 6.109375 26.703125 6.109375 
Q 34.1875 6.109375 38.703125 11.40625 
Q 43.21875 16.703125 43.21875 25.484375 
L 43.21875 27.484375 
z
M 52.203125 31.203125 
L 52.203125 0 
L 43.21875 0 
L 43.21875 8.296875 
Q 40.140625 3.328125 35.546875 0.953125 
Q 30.953125 -1.421875 24.3125 -1.421875 
Q 15.921875 -1.421875 10.953125 3.296875 
Q 6 8.015625 6 15.921875 
Q 6 25.140625 12.171875 29.828125 
Q 18.359375 34.515625 30.609375 34.515625 
L 43.21875 34.515625 
L 43.21875 35.40625 
Q 43.21875 41.609375 39.140625 45 
Q 35.0625 48.390625 27.6875 48.390625 
Q 23 48.390625 18.546875 47.265625 
Q 14.109375 46.140625 10.015625 43.890625 
L 10.015625 52.203125 
Q 14.9375 54.109375 19.578125 55.046875 
Q 24.21875 56 28.609375 56 
Q 40.484375 56 46.34375 49.84375 
Q 52.203125 43.703125 52.203125 31.203125 
z
" id="DejaVuSans-97"/>
       <path d="M 18.3125 70.21875 
L 18.3125 54.6875 
L 36.8125 54.6875 
L 36.8125 47.703125 
L 18.3125 47.703125 
L 18.3125 18.015625 
Q 18.3125 11.328125 20.140625 9.421875 
Q 21.96875 7.515625 27.59375 7.515625 
L 36.8125 7.515625 
L 36.8125 0 
L 27.59375 0 
Q 17.1875 0 13.234375 3.875 
Q 9.28125 7.765625 9.28125 18.015625 
L 9.28125 47.703125 
L 2.6875 47.703125 
L 2.6875 54.6875 
L 9.28125 54.6875 
L 9.28125 70.21875 
z
" id="DejaVuSans-116"/>
       <path d="M 9.421875 54.6875 
L 18.40625 54.6875 
L 18.40625 0 
L 9.421875 0 
z
M 9.421875 75.984375 
L 18.40625 75.984375 
L 18.40625 64.59375 
L 9.421875 64.59375 
z
" id="DejaVuSans-105"/>
       <path d="M 54.890625 33.015625 
L 54.890625 0 
L 45.90625 0 
L 45.90625 32.71875 
Q 45.90625 40.484375 42.875 44.328125 
Q 39.84375 48.1875 33.796875 48.1875 
Q 26.515625 48.1875 22.3125 43.546875 
Q 18.109375 38.921875 18.109375 30.90625 
L 18.109375 0 
L 9.078125 0 
L 9.078125 54.6875 
L 18.109375 54.6875 
L 18.109375 46.1875 
Q 21.34375 51.125 25.703125 53.5625 
Q 30.078125 56 35.796875 56 
Q 45.21875 56 50.046875 50.171875 
Q 54.890625 44.34375 54.890625 33.015625 
z
" id="DejaVuSans-110"/>
       <path id="DejaVuSans-32"/>
       <path d="M 52 44.1875 
Q 55.375 50.25 60.0625 53.125 
Q 64.75 56 71.09375 56 
Q 79.640625 56 84.28125 50.015625 
Q 88.921875 44.046875 88.921875 33.015625 
L 88.921875 0 
L 79.890625 0 
L 79.890625 32.71875 
Q 79.890625 40.578125 77.09375 44.375 
Q 74.3125 48.1875 68.609375 48.1875 
Q 61.625 48.1875 57.5625 43.546875 
Q 53.515625 38.921875 53.515625 30.90625 
L 53.515625 0 
L 44.484375 0 
L 44.484375 32.71875 
Q 44.484375 40.625 41.703125 44.40625 
Q 38.921875 48.1875 33.109375 48.1875 
Q 26.21875 48.1875 22.15625 43.53125 
Q 18.109375 38.875 18.109375 30.90625 
L 18.109375 0 
L 9.078125 0 
L 9.078125 54.6875 
L 18.109375 54.6875 
L 18.109375 46.1875 
Q 21.1875 51.21875 25.484375 53.609375 
Q 29.78125 56 35.6875 56 
Q 41.65625 56 45.828125 52.96875 
Q 50 49.953125 52 44.1875 
z
" id="DejaVuSans-109"/>
      </defs>
      <use xlink:href="#DejaVuSans-67"/>
      <use x="69.824219" xlink:href="#DejaVuSans-111"/>
      <use x="131.005859" xlink:href="#DejaVuSans-114"/>
      <use x="170.369141" xlink:href="#DejaVuSans-114"/>
      <use x="209.232422" xlink:href="#DejaVuSans-101"/>
      <use x="270.755859" xlink:href="#DejaVuSans-108"/>
      <use x="298.539062" xlink:href="#DejaVuSans-97"/>
      <use x="359.818359" xlink:href="#DejaVuSans-116"/>
      <use x="399.027344" xlink:href="#DejaVuSans-105"/>
      <use x="426.810547" xlink:href="#DejaVuSans-111"/>
      <use x="487.992188" xlink:href="#DejaVuSans-110"/>
      <use x="551.371094" xlink:href="#DejaVuSans-32"/>
      <use x="583.158203" xlink:href="#DejaVuSans-116"/>
      <use x="622.367188" xlink:href="#DejaVuSans-105"/>
      <use x="650.150391" xlink:href="#DejaVuSans-109"/>
      <use x="747.5625" xlink:href="#DejaVuSans-101"/>
     </g>
    </g>
   </g>
   <g id="matplotlib.axis_2">
    <g id="ytick_1">
     <g id="line2d_31">
      <path clip-path="url(#p5726e41d90)" d="M 54 246.24 
L 388.8 246.24 
" style="fill:none;stroke:#b0b0b0;stroke-dasharray:0.8,1.32;stroke-dashoffset:0;stroke-width:0.8;"/>
     </g>
     <g id="line2d_32">
      <defs>
       <path d="M 0 0 
L -3.5 0 
" id="m92ace8c556" style="stroke:#000000;stroke-width:0.8;"/>
      </defs>
      <g>
       <use style="stroke:#000000;stroke-width:0.8;" x="54" xlink:href="#m92ace8c556" y="246.24"/>
      </g>
     </g>
     <g id="text_5">
      <!-- 0.00 -->
      <g transform="translate(31.414062 248.899453)scale(0.07 -0.07)">
       <defs>
        <path d="M 10.6875 12.40625 
L 21 12.40625 
L 21 0 
L 10.6875 0 
z
" id="DejaVuSans-46"/>
       </defs>
       <use xlink:href="#DejaVuSans-48"/>
       <use x="63.623047" xlink:href="#DejaVuSans-46"/>
       <use x="95.410156" xlink:href="#DejaVuSans-48"/>
       <use x="159.033203" xlink:href="#DejaVuSans-48"/>
      </g>
     </g>
    </g>
    <g id="ytick_2">
     <g id="line2d_33">
      <path clip-path="url(#p5726e41d90)" d="M 54 219.045482 
L 388.8 219.045482 
" style="fill:none;stroke:#b0b0b0;stroke-dasharray:0.8,1.32;stroke-dashoffset:0;stroke-width:0.8;"/>
     </g>
     <g id="line2d_34">
      <g>
       <use style="stroke:#000000;stroke-width:0.8;" x="54" xlink:href="#m92ace8c556" y="219.045482"/>
      </g>
     </g>
     <g id="text_6">
      <!-- 0.01 -->
      <g transform="translate(31.414062 221.704935)scale(0.07 -0.07)">
       <use xlink:href="#DejaVuSans-48"/>
       <use x="63.623047" xlink:href="#DejaVuSans-46"/>
       <use x="95.410156" xlink:href="#DejaVuSans-48"/>
       <use x="159.033203" xlink:href="#DejaVuSans-49"/>
      </g>
     </g>
    </g>
    <g id="ytick_3">
     <g id="line2d_35">
      <path clip-path="url(#p5726e41d90)" d="M 54 191.850963 
L 388.8 191.850963 
" style="fill:none;stroke:#b0b0b0;stroke-dasharray:0.8,1.32;stroke-dashoffset:0;stroke-width:0.8;"/>
     </g>
     <g id="line2d_36">
      <g>
       <use style="stroke:#000000;stroke-width:0.8;" x="54" xlink:href="#m92ace8c556" y="191.850963"/>
      </g>
     </g>
     <g id="text_7">
      <!-- 0.02 -->
      <g transform="translate(31.414062 194.510416)scale(0.07 -0.07)">
       <defs>
        <path d="M 19.1875 8.296875 
L 53.609375 8.296875 
L 53.609375 0 
L 7.328125 0 
L 7.328125 8.296875 
Q 12.9375 14.109375 22.625 23.890625 
Q 32.328125 33.6875 34.8125 36.53125 
Q 39.546875 41.84375 41.421875 45.53125 
Q 43.3125 49.21875 43.3125 52.78125 
Q 43.3125 58.59375 39.234375 62.25 
Q 35.15625 65.921875 28.609375 65.921875 
Q 23.96875 65.921875 18.8125 64.3125 
Q 13.671875 62.703125 7.8125 59.421875 
L 7.8125 69.390625 
Q 13.765625 71.78125 18.9375 73 
Q 24.125 74.21875 28.421875 74.21875 
Q 39.75 74.21875 46.484375 68.546875 
Q 53.21875 62.890625 53.21875 53.421875 
Q 53.21875 48.921875 51.53125 44.890625 
Q 49.859375 40.875 45.40625 35.40625 
Q 44.1875 33.984375 37.640625 27.21875 
Q 31.109375 20.453125 19.1875 8.296875 
z
" id="DejaVuSans-50"/>
       </defs>
       <use xlink:href="#DejaVuSans-48"/>
       <use x="63.623047" xlink:href="#DejaVuSans-46"/>
       <use x="95.410156" xlink:href="#DejaVuSans-48"/>
       <use x="159.033203" xlink:href="#DejaVuSans-50"/>
      </g>
     </g>
    </g>
    <g id="ytick_4">
     <g id="line2d_37">
      <path clip-path="url(#p5726e41d90)" d="M 54 164.656445 
L 388.8 164.656445 
" style="fill:none;stroke:#b0b0b0;stroke-dasharray:0.8,1.32;stroke-dashoffset:0;stroke-width:0.8;"/>
     </g>
     <g id="line2d_38">
      <g>
       <use style="stroke:#000000;stroke-width:0.8;" x="54" xlink:href="#m92ace8c556" y="164.656445"/>
      </g>
     </g>
     <g id="text_8">
      <!-- 0.03 -->
      <g transform="translate(31.414062 167.315898)scale(0.07 -0.07)">
       <defs>
        <path d="M 40.578125 39.3125 
Q 47.65625 37.796875 51.625 33 
Q 55.609375 28.21875 55.609375 21.1875 
Q 55.609375 10.40625 48.1875 4.484375 
Q 40.765625 -1.421875 27.09375 -1.421875 
Q 22.515625 -1.421875 17.65625 -0.515625 
Q 12.796875 0.390625 7.625 2.203125 
L 7.625 11.71875 
Q 11.71875 9.328125 16.59375 8.109375 
Q 21.484375 6.890625 26.8125 6.890625 
Q 36.078125 6.890625 40.9375 10.546875 
Q 45.796875 14.203125 45.796875 21.1875 
Q 45.796875 27.640625 41.28125 31.265625 
Q 36.765625 34.90625 28.71875 34.90625 
L 20.21875 34.90625 
L 20.21875 43.015625 
L 29.109375 43.015625 
Q 36.375 43.015625 40.234375 45.921875 
Q 44.09375 48.828125 44.09375 54.296875 
Q 44.09375 59.90625 40.109375 62.90625 
Q 36.140625 65.921875 28.71875 65.921875 
Q 24.65625 65.921875 20.015625 65.03125 
Q 15.375 64.15625 9.8125 62.3125 
L 9.8125 71.09375 
Q 15.4375 72.65625 20.34375 73.4375 
Q 25.25 74.21875 29.59375 74.21875 
Q 40.828125 74.21875 47.359375 69.109375 
Q 53.90625 64.015625 53.90625 55.328125 
Q 53.90625 49.265625 50.4375 45.09375 
Q 46.96875 40.921875 40.578125 39.3125 
z
" id="DejaVuSans-51"/>
       </defs>
       <use xlink:href="#DejaVuSans-48"/>
       <use x="63.623047" xlink:href="#DejaVuSans-46"/>
       <use x="95.410156" xlink:href="#DejaVuSans-48"/>
       <use x="159.033203" xlink:href="#DejaVuSans-51"/>
      </g>
     </g>
    </g>
    <g id="ytick_5">
     <g id="line2d_39">
      <path clip-path="url(#p5726e41d90)" d="M 54 137.461926 
L 388.8 137.461926 
" style="fill:none;stroke:#b0b0b0;stroke-dasharray:0.8,1.32;stroke-dashoffset:0;stroke-width:0.8;"/>
     </g>
     <g id="line2d_40">
      <g>
       <use style="stroke:#000000;stroke-width:0.8;" x="54" xlink:href="#m92ace8c556" y="137.461926"/>
      </g>
     </g>
     <g id="text_9">
      <!-- 0.04 -->
      <g transform="translate(31.414062 140.121379)scale(0.07 -0.07)">
       <defs>
        <path d="M 37.796875 64.3125 
L 12.890625 25.390625 
L 37.796875 25.390625 
z
M 35.203125 72.90625 
L 47.609375 72.90625 
L 47.609375 25.390625 
L 58.015625 25.390625 
L 58.015625 17.1875 
L 47.609375 17.1875 
L 47.609375 0 
L 37.796875 0 
L 37.796875 17.1875 
L 4.890625 17.1875 
L 4.890625 26.703125 
z
" id="DejaVuSans-52"/>
       </defs>
       <use xlink:href="#DejaVuSans-48"/>
       <use x="63.623047" xlink:href="#DejaVuSans-46"/>
       <use x="95.410156" xlink:href="#DejaVuSans-48"/>
       <use x="159.033203" xlink:href="#DejaVuSans-52"/>
      </g>
     </g>
    </g>
    <g id="ytick_6">
     <g id="line2d_41">
      <path clip-path="url(#p5726e41d90)" d="M 54 110.267408 
L 388.8 110.267408 
" style="fill:none;stroke:#b0b0b0;stroke-dasharray:0.8,1.32;stroke-dashoffset:0;stroke-width:0.8;"/>
     </g>
     <g id="line2d_42">
      <g>
       <use style="stroke:#000000;stroke-width:0.8;" x="54" xlink:href="#m92ace8c556" y="110.267408"/>
      </g>
     </g>
     <g id="text_10">
      <!-- 0.05 -->
      <g transform="translate(31.414062 112.926861)scale(0.07 -0.07)">
       <defs>
        <path d="M 10.796875 72.90625 
L 49.515625 72.90625 
L 49.515625 64.59375 
L 19.828125 64.59375 
L 19.828125 46.734375 
Q 21.96875 47.46875 24.109375 47.828125 
Q 26.265625 48.1875 28.421875 48.1875 
Q 40.625 48.1875 47.75 41.5 
Q 54.890625 34.8125 54.890625 23.390625 
Q 54.890625 11.625 47.5625 5.09375 
Q 40.234375 -1.421875 26.90625 -1.421875 
Q 22.3125 -1.421875 17.546875 -0.640625 
Q 12.796875 0.140625 7.71875 1.703125 
L 7.71875 11.625 
Q 12.109375 9.234375 16.796875 8.0625 
Q 21.484375 6.890625 26.703125 6.890625 
Q 35.15625 6.890625 40.078125 11.328125 
Q 45.015625 15.765625 45.015625 23.390625 
Q 45.015625 31 40.078125 35.4375 
Q 35.15625 39.890625 26.703125 39.890625 
Q 22.75 39.890625 18.8125 39.015625 
Q 14.890625 38.140625 10.796875 36.28125 
z
" id="DejaVuSans-53"/>
       </defs>
       <use xlink:href="#DejaVuSans-48"/>
       <use x="63.623047" xlink:href="#DejaVuSans-46"/>
       <use x="95.410156" xlink:href="#DejaVuSans-48"/>
       <use x="159.033203" xlink:href="#DejaVuSans-53"/>
      </g>
     </g>
    </g>
    <g id="ytick_7">
     <g id="line2d_43">
      <path clip-path="url(#p5726e41d90)" d="M 54 83.072889 
L 388.8 83.072889 
" style="fill:none;stroke:#b0b0b0;stroke-dasharray:0.8,1.32;stroke-dashoffset:0;stroke-width:0.8;"/>
     </g>
     <g id="line2d_44">
      <g>
       <use style="stroke:#000000;stroke-width:0.8;" x="54" xlink:href="#m92ace8c556" y="83.072889"/>
      </g>
     </g>
     <g id="text_11">
      <!-- 0.06 -->
      <g transform="translate(31.414062 85.732342)scale(0.07 -0.07)">
       <defs>
        <path d="M 33.015625 40.375 
Q 26.375 40.375 22.484375 35.828125 
Q 18.609375 31.296875 18.609375 23.390625 
Q 18.609375 15.53125 22.484375 10.953125 
Q 26.375 6.390625 33.015625 6.390625 
Q 39.65625 6.390625 43.53125 10.953125 
Q 47.40625 15.53125 47.40625 23.390625 
Q 47.40625 31.296875 43.53125 35.828125 
Q 39.65625 40.375 33.015625 40.375 
z
M 52.59375 71.296875 
L 52.59375 62.3125 
Q 48.875 64.0625 45.09375 64.984375 
Q 41.3125 65.921875 37.59375 65.921875 
Q 27.828125 65.921875 22.671875 59.328125 
Q 17.53125 52.734375 16.796875 39.40625 
Q 19.671875 43.65625 24.015625 45.921875 
Q 28.375 48.1875 33.59375 48.1875 
Q 44.578125 48.1875 50.953125 41.515625 
Q 57.328125 34.859375 57.328125 23.390625 
Q 57.328125 12.15625 50.6875 5.359375 
Q 44.046875 -1.421875 33.015625 -1.421875 
Q 20.359375 -1.421875 13.671875 8.265625 
Q 6.984375 17.96875 6.984375 36.375 
Q 6.984375 53.65625 15.1875 63.9375 
Q 23.390625 74.21875 37.203125 74.21875 
Q 40.921875 74.21875 44.703125 73.484375 
Q 48.484375 72.75 52.59375 71.296875 
z
" id="DejaVuSans-54"/>
       </defs>
       <use xlink:href="#DejaVuSans-48"/>
       <use x="63.623047" xlink:href="#DejaVuSans-46"/>
       <use x="95.410156" xlink:href="#DejaVuSans-48"/>
       <use x="159.033203" xlink:href="#DejaVuSans-54"/>
      </g>
     </g>
    </g>
    <g id="ytick_8">
     <g id="line2d_45">
      <path clip-path="url(#p5726e41d90)" d="M 54 55.878371 
L 388.8 55.878371 
" style="fill:none;stroke:#b0b0b0;stroke-dasharray:0.8,1.32;stroke-dashoffset:0;stroke-width:0.8;"/>
     </g>
     <g id="line2d_46">
      <g>
       <use style="stroke:#000000;stroke-width:0.8;" x="54" xlink:href="#m92ace8c556" y="55.878371"/>
      </g>
     </g>
     <g id="text_12">
      <!-- 0.07 -->
      <g transform="translate(31.414062 58.537824)scale(0.07 -0.07)">
       <defs>
        <path d="M 8.203125 72.90625 
L 55.078125 72.90625 
L 55.078125 68.703125 
L 28.609375 0 
L 18.3125 0 
L 43.21875 64.59375 
L 8.203125 64.59375 
z
" id="DejaVuSans-55"/>
       </defs>
       <use xlink:href="#DejaVuSans-48"/>
       <use x="63.623047" xlink:href="#DejaVuSans-46"/>
       <use x="95.410156" xlink:href="#DejaVuSans-48"/>
       <use x="159.033203" xlink:href="#DejaVuSans-55"/>
      </g>
     </g>
    </g>
    <g id="text_13">
     <!-- Firing rate -->
     <g transform="translate(25.334375 170.875156)rotate(-90)scale(0.1 -0.1)">
      <defs>
       <path d="M 9.8125 72.90625 
L 51.703125 72.90625 
L 51.703125 64.59375 
L 19.671875 64.59375 
L 19.671875 43.109375 
L 48.578125 43.109375 
L 48.578125 34.8125 
L 19.671875 34.8125 
L 19.671875 0 
L 9.8125 0 
z
" id="DejaVuSans-70"/>
       <path d="M 45.40625 27.984375 
Q 45.40625 37.75 41.375 43.109375 
Q 37.359375 48.484375 30.078125 48.484375 
Q 22.859375 48.484375 18.828125 43.109375 
Q 14.796875 37.75 14.796875 27.984375 
Q 14.796875 18.265625 18.828125 12.890625 
Q 22.859375 7.515625 30.078125 7.515625 
Q 37.359375 7.515625 41.375 12.890625 
Q 45.40625 18.265625 45.40625 27.984375 
z
M 54.390625 6.78125 
Q 54.390625 -7.171875 48.1875 -13.984375 
Q 42 -20.796875 29.203125 -20.796875 
Q 24.46875 -20.796875 20.265625 -20.09375 
Q 16.0625 -19.390625 12.109375 -17.921875 
L 12.109375 -9.1875 
Q 16.0625 -11.328125 19.921875 -12.34375 
Q 23.78125 -13.375 27.78125 -13.375 
Q 36.625 -13.375 41.015625 -8.765625 
Q 45.40625 -4.15625 45.40625 5.171875 
L 45.40625 9.625 
Q 42.625 4.78125 38.28125 2.390625 
Q 33.9375 0 27.875 0 
Q 17.828125 0 11.671875 7.65625 
Q 5.515625 15.328125 5.515625 27.984375 
Q 5.515625 40.671875 11.671875 48.328125 
Q 17.828125 56 27.875 56 
Q 33.9375 56 38.28125 53.609375 
Q 42.625 51.21875 45.40625 46.390625 
L 45.40625 54.6875 
L 54.390625 54.6875 
z
" id="DejaVuSans-103"/>
      </defs>
      <use xlink:href="#DejaVuSans-70"/>
      <use x="50.269531" xlink:href="#DejaVuSans-105"/>
      <use x="78.052734" xlink:href="#DejaVuSans-114"/>
      <use x="119.166016" xlink:href="#DejaVuSans-105"/>
      <use x="146.949219" xlink:href="#DejaVuSans-110"/>
      <use x="210.328125" xlink:href="#DejaVuSans-103"/>
      <use x="273.804688" xlink:href="#DejaVuSans-32"/>
      <use x="305.591797" xlink:href="#DejaVuSans-114"/>
      <use x="346.705078" xlink:href="#DejaVuSans-97"/>
      <use x="407.984375" xlink:href="#DejaVuSans-116"/>
      <use x="447.193359" xlink:href="#DejaVuSans-101"/>
     </g>
    </g>
   </g>
   <g id="PathCollection_1">
    <defs>
     <path d="M 0 1.414214 
C 0.375054 1.414214 0.734797 1.265203 1 1 
C 1.265203 0.734797 1.414214 0.375054 1.414214 0 
C 1.414214 -0.375054 1.265203 -0.734797 1 -1 
C 0.734797 -1.265203 0.375054 -1.414214 0 -1.414214 
C -0.375054 -1.414214 -0.734797 -1.265203 -1 -1 
C -1.265203 -0.734797 -1.414214 -0.375054 -1.414214 0 
C -1.414214 0.375054 -1.265203 0.734797 -1 1 
C -0.734797 1.265203 -0.375054 1.414214 0 1.414214 
z
" id="me6b513aea2" style="stroke:#1f77b4;"/>
    </defs>
    <g clip-path="url(#p5726e41d90)">
     <use style="fill:#1f77b4;stroke:#1f77b4;" x="54" xlink:href="#me6b513aea2" y="246.24"/>
     <use style="fill:#1f77b4;stroke:#1f77b4;" x="57.381818" xlink:href="#me6b513aea2" y="246.24"/>
     <use style="fill:#1f77b4;stroke:#1f77b4;" x="60.763636" xlink:href="#me6b513aea2" y="246.24"/>
     <use style="fill:#1f77b4;stroke:#1f77b4;" x="64.145455" xlink:href="#me6b513aea2" y="246.24"/>
     <use style="fill:#1f77b4;stroke:#1f77b4;" x="67.527273" xlink:href="#me6b513aea2" y="246.24"/>
     <use style="fill:#1f77b4;stroke:#1f77b4;" x="70.909091" xlink:href="#me6b513aea2" y="246.24"/>
     <use style="fill:#1f77b4;stroke:#1f77b4;" x="74.290909" xlink:href="#me6b513aea2" y="246.24"/>
     <use style="fill:#1f77b4;stroke:#1f77b4;" x="77.672727" xlink:href="#me6b513aea2" y="246.24"/>
     <use style="fill:#1f77b4;stroke:#1f77b4;" x="81.054545" xlink:href="#me6b513aea2" y="246.24"/>
     <use style="fill:#1f77b4;stroke:#1f77b4;" x="84.436364" xlink:href="#me6b513aea2" y="246.24"/>
     <use style="fill:#1f77b4;stroke:#1f77b4;" x="87.818182" xlink:href="#me6b513aea2" y="246.24"/>
     <use style="fill:#1f77b4;stroke:#1f77b4;" x="91.2" xlink:href="#me6b513aea2" y="246.24"/>
     <use style="fill:#1f77b4;stroke:#1f77b4;" x="94.581818" xlink:href="#me6b513aea2" y="246.24"/>
     <use style="fill:#1f77b4;stroke:#1f77b4;" x="97.963636" xlink:href="#me6b513aea2" y="246.185616"/>
     <use style="fill:#1f77b4;stroke:#1f77b4;" x="101.345455" xlink:href="#me6b513aea2" y="246.24"/>
     <use style="fill:#1f77b4;stroke:#1f77b4;" x="104.727273" xlink:href="#me6b513aea2" y="246.24"/>
     <use style="fill:#1f77b4;stroke:#1f77b4;" x="108.109091" xlink:href="#me6b513aea2" y="246.185616"/>
     <use style="fill:#1f77b4;stroke:#1f77b4;" x="111.490909" xlink:href="#me6b513aea2" y="246.076849"/>
     <use style="fill:#1f77b4;stroke:#1f77b4;" x="114.872727" xlink:href="#me6b513aea2" y="245.913698"/>
     <use style="fill:#1f77b4;stroke:#1f77b4;" x="118.254545" xlink:href="#me6b513aea2" y="245.750548"/>
     <use style="fill:#1f77b4;stroke:#1f77b4;" x="121.636364" xlink:href="#me6b513aea2" y="245.533013"/>
     <use style="fill:#1f77b4;stroke:#1f77b4;" x="125.018182" xlink:href="#me6b513aea2" y="245.315479"/>
     <use style="fill:#1f77b4;stroke:#1f77b4;" x="128.4" xlink:href="#me6b513aea2" y="244.771643"/>
     <use style="fill:#1f77b4;stroke:#1f77b4;" x="131.781818" xlink:href="#me6b513aea2" y="244.445341"/>
     <use style="fill:#1f77b4;stroke:#1f77b4;" x="135.163636" xlink:href="#me6b513aea2" y="243.792738"/>
     <use style="fill:#1f77b4;stroke:#1f77b4;" x="138.545455" xlink:href="#me6b513aea2" y="243.248902"/>
     <use style="fill:#1f77b4;stroke:#1f77b4;" x="141.927273" xlink:href="#me6b513aea2" y="241.508627"/>
     <use style="fill:#1f77b4;stroke:#1f77b4;" x="145.309091" xlink:href="#me6b513aea2" y="239.713968"/>
     <use style="fill:#1f77b4;stroke:#1f77b4;" x="148.690909" xlink:href="#me6b513aea2" y="238.517529"/>
     <use style="fill:#1f77b4;stroke:#1f77b4;" x="152.072727" xlink:href="#me6b513aea2" y="237.484241"/>
     <use style="fill:#1f77b4;stroke:#1f77b4;" x="155.454545" xlink:href="#me6b513aea2" y="232.752868"/>
     <use style="fill:#1f77b4;stroke:#1f77b4;" x="158.836364" xlink:href="#me6b513aea2" y="231.12136"/>
     <use style="fill:#1f77b4;stroke:#1f77b4;" x="162.218182" xlink:href="#me6b513aea2" y="227.314508"/>
     <use style="fill:#1f77b4;stroke:#1f77b4;" x="165.6" xlink:href="#me6b513aea2" y="224.269026"/>
     <use style="fill:#1f77b4;stroke:#1f77b4;" x="168.981818" xlink:href="#me6b513aea2" y="218.776283"/>
     <use style="fill:#1f77b4;stroke:#1f77b4;" x="172.363636" xlink:href="#me6b513aea2" y="215.4045"/>
     <use style="fill:#1f77b4;stroke:#1f77b4;" x="175.745455" xlink:href="#me6b513aea2" y="213.664224"/>
     <use style="fill:#1f77b4;stroke:#1f77b4;" x="179.127273" xlink:href="#me6b513aea2" y="206.485589"/>
     <use style="fill:#1f77b4;stroke:#1f77b4;" x="182.509091" xlink:href="#me6b513aea2" y="201.862984"/>
     <use style="fill:#1f77b4;stroke:#1f77b4;" x="185.890909" xlink:href="#me6b513aea2" y="195.282568"/>
     <use style="fill:#1f77b4;stroke:#1f77b4;" x="189.272727" xlink:href="#me6b513aea2" y="189.952975"/>
     <use style="fill:#1f77b4;stroke:#1f77b4;" x="192.654545" xlink:href="#me6b513aea2" y="183.97078"/>
     <use style="fill:#1f77b4;stroke:#1f77b4;" x="196.036364" xlink:href="#me6b513aea2" y="178.423653"/>
     <use style="fill:#1f77b4;stroke:#1f77b4;" x="199.418182" xlink:href="#me6b513aea2" y="173.583512"/>
     <use style="fill:#1f77b4;stroke:#1f77b4;" x="202.8" xlink:href="#me6b513aea2" y="166.187343"/>
     <use style="fill:#1f77b4;stroke:#1f77b4;" x="206.181818" xlink:href="#me6b513aea2" y="163.196245"/>
     <use style="fill:#1f77b4;stroke:#1f77b4;" x="209.563636" xlink:href="#me6b513aea2" y="155.473774"/>
     <use style="fill:#1f77b4;stroke:#1f77b4;" x="212.945455" xlink:href="#me6b513aea2" y="150.905552"/>
     <use style="fill:#1f77b4;stroke:#1f77b4;" x="216.327273" xlink:href="#me6b513aea2" y="146.065411"/>
     <use style="fill:#1f77b4;stroke:#1f77b4;" x="219.709091" xlink:href="#me6b513aea2" y="138.071022"/>
     <use style="fill:#1f77b4;stroke:#1f77b4;" x="223.090909" xlink:href="#me6b513aea2" y="127.574988"/>
     <use style="fill:#1f77b4;stroke:#1f77b4;" x="226.472727" xlink:href="#me6b513aea2" y="131.490607"/>
     <use style="fill:#1f77b4;stroke:#1f77b4;" x="229.854545" xlink:href="#me6b513aea2" y="117.187721"/>
     <use style="fill:#1f77b4;stroke:#1f77b4;" x="233.236364" xlink:href="#me6b513aea2" y="118.656078"/>
     <use style="fill:#1f77b4;stroke:#1f77b4;" x="236.618182" xlink:href="#me6b513aea2" y="110.117853"/>
     <use style="fill:#1f77b4;stroke:#1f77b4;" x="240" xlink:href="#me6b513aea2" y="111.803744"/>
     <use style="fill:#1f77b4;stroke:#1f77b4;" x="243.381818" xlink:href="#me6b513aea2" y="104.842644"/>
     <use style="fill:#1f77b4;stroke:#1f77b4;" x="246.763636" xlink:href="#me6b513aea2" y="103.754972"/>
     <use style="fill:#1f77b4;stroke:#1f77b4;" x="250.145455" xlink:href="#me6b513aea2" y="98.751681"/>
     <use style="fill:#1f77b4;stroke:#1f77b4;" x="253.527273" xlink:href="#me6b513aea2" y="94.020308"/>
     <use style="fill:#1f77b4;stroke:#1f77b4;" x="256.909091" xlink:href="#me6b513aea2" y="92.334416"/>
     <use style="fill:#1f77b4;stroke:#1f77b4;" x="260.290909" xlink:href="#me6b513aea2" y="90.267839"/>
     <use style="fill:#1f77b4;stroke:#1f77b4;" x="263.672727" xlink:href="#me6b513aea2" y="89.66962"/>
     <use style="fill:#1f77b4;stroke:#1f77b4;" x="267.054545" xlink:href="#me6b513aea2" y="78.03153"/>
     <use style="fill:#1f77b4;stroke:#1f77b4;" x="270.436364" xlink:href="#me6b513aea2" y="81.185778"/>
     <use style="fill:#1f77b4;stroke:#1f77b4;" x="273.818182" xlink:href="#me6b513aea2" y="80.261257"/>
     <use style="fill:#1f77b4;stroke:#1f77b4;" x="277.2" xlink:href="#me6b513aea2" y="79.119202"/>
     <use style="fill:#1f77b4;stroke:#1f77b4;" x="280.581818" xlink:href="#me6b513aea2" y="76.726323"/>
     <use style="fill:#1f77b4;stroke:#1f77b4;" x="283.963636" xlink:href="#me6b513aea2" y="76.400022"/>
     <use style="fill:#1f77b4;stroke:#1f77b4;" x="287.345455" xlink:href="#me6b513aea2" y="70.852895"/>
     <use style="fill:#1f77b4;stroke:#1f77b4;" x="290.727273" xlink:href="#me6b513aea2" y="72.810704"/>
     <use style="fill:#1f77b4;stroke:#1f77b4;" x="294.109091" xlink:href="#me6b513aea2" y="64.870699"/>
     <use style="fill:#1f77b4;stroke:#1f77b4;" x="297.490909" xlink:href="#me6b513aea2" y="68.351249"/>
     <use style="fill:#1f77b4;stroke:#1f77b4;" x="300.872727" xlink:href="#me6b513aea2" y="67.426728"/>
     <use style="fill:#1f77b4;stroke:#1f77b4;" x="304.254545" xlink:href="#me6b513aea2" y="69.438921"/>
     <use style="fill:#1f77b4;stroke:#1f77b4;" x="307.636364" xlink:href="#me6b513aea2" y="68.351249"/>
     <use style="fill:#1f77b4;stroke:#1f77b4;" x="311.018182" xlink:href="#me6b513aea2" y="59.541106"/>
     <use style="fill:#1f77b4;stroke:#1f77b4;" x="314.4" xlink:href="#me6b513aea2" y="64.761931"/>
     <use style="fill:#1f77b4;stroke:#1f77b4;" x="317.781818" xlink:href="#me6b513aea2" y="60.683162"/>
     <use style="fill:#1f77b4;stroke:#1f77b4;" x="321.163636" xlink:href="#me6b513aea2" y="68.460016"/>
     <use style="fill:#1f77b4;stroke:#1f77b4;" x="324.545455" xlink:href="#me6b513aea2" y="65.577685"/>
     <use style="fill:#1f77b4;stroke:#1f77b4;" x="327.927273" xlink:href="#me6b513aea2" y="62.912889"/>
     <use style="fill:#1f77b4;stroke:#1f77b4;" x="331.309091" xlink:href="#me6b513aea2" y="60.139326"/>
     <use style="fill:#1f77b4;stroke:#1f77b4;" x="334.690909" xlink:href="#me6b513aea2" y="56.060556"/>
     <use style="fill:#1f77b4;stroke:#1f77b4;" x="338.072727" xlink:href="#me6b513aea2" y="59.106037"/>
     <use style="fill:#1f77b4;stroke:#1f77b4;" x="341.454545" xlink:href="#me6b513aea2" y="63.021656"/>
     <use style="fill:#1f77b4;stroke:#1f77b4;" x="344.836364" xlink:href="#me6b513aea2" y="61.009463"/>
     <use style="fill:#1f77b4;stroke:#1f77b4;" x="348.218182" xlink:href="#me6b513aea2" y="54.9185"/>
     <use style="fill:#1f77b4;stroke:#1f77b4;" x="351.6" xlink:href="#me6b513aea2" y="55.407953"/>
     <use style="fill:#1f77b4;stroke:#1f77b4;" x="354.981818" xlink:href="#me6b513aea2" y="52.19932"/>
     <use style="fill:#1f77b4;stroke:#1f77b4;" x="358.363636" xlink:href="#me6b513aea2" y="59.813024"/>
     <use style="fill:#1f77b4;stroke:#1f77b4;" x="361.745455" xlink:href="#me6b513aea2" y="49.153839"/>
     <use style="fill:#1f77b4;stroke:#1f77b4;" x="365.127273" xlink:href="#me6b513aea2" y="60.193709"/>
     <use style="fill:#1f77b4;stroke:#1f77b4;" x="368.509091" xlink:href="#me6b513aea2" y="60.411244"/>
     <use style="fill:#1f77b4;stroke:#1f77b4;" x="371.890909" xlink:href="#me6b513aea2" y="44.64"/>
     <use style="fill:#1f77b4;stroke:#1f77b4;" x="375.272727" xlink:href="#me6b513aea2" y="57.03946"/>
     <use style="fill:#1f77b4;stroke:#1f77b4;" x="378.654545" xlink:href="#me6b513aea2" y="55.625487"/>
     <use style="fill:#1f77b4;stroke:#1f77b4;" x="382.036364" xlink:href="#me6b513aea2" y="52.688773"/>
     <use style="fill:#1f77b4;stroke:#1f77b4;" x="385.418182" xlink:href="#me6b513aea2" y="54.864117"/>
     <use style="fill:#1f77b4;stroke:#1f77b4;" x="388.8" xlink:href="#me6b513aea2" y="48.446852"/>
    </g>
   </g>
   <g id="patch_3">
    <path d="M 54 256.32 
L 54 34.56 
" style="fill:none;stroke:#000000;stroke-linecap:square;stroke-linejoin:miter;stroke-width:0.8;"/>
   </g>
   <g id="patch_4">
    <path d="M 54 256.32 
L 388.8 256.32 
" style="fill:none;stroke:#000000;stroke-linecap:square;stroke-linejoin:miter;stroke-width:0.8;"/>
   </g>
   <g id="line2d_47">
    <path clip-path="url(#p5726e41d90)" d="M 54 246.24 
L 67.95 246.239993 
L 81.9 246.239547 
L 95.85 246.229093 
L 109.8 246.1144 
L 123.75 245.424929 
L 137.7 242.858005 
L 151.65 236.338059 
L 165.6 224.10433 
L 179.55 205.973748 
L 193.5 183.565163 
L 207.45 159.510451 
L 221.4 136.450509 
L 235.35 116.320442 
L 249.3 100.035758 
L 263.25 87.570086 
L 277.2 78.320707 
L 291.15 71.525763 
L 305.1 66.520198 
L 319.05 62.805452 
L 333 60.026632 
L 346.95 57.930792 
L 360.9 56.343744 
L 374.85 55.213797 
L 388.8 54.754087 
" style="fill:none;stroke:#000000;stroke-linecap:square;stroke-width:1.5;"/>
   </g>
   <g id="text_14">
    <!-- for $\mu = $-0.5; $\sigma=$1 -->
    <g transform="translate(184.5525 26.56)scale(0.085 -0.085)">
     <defs>
      <path d="M 37.109375 75.984375 
L 37.109375 68.5 
L 28.515625 68.5 
Q 23.6875 68.5 21.796875 66.546875 
Q 19.921875 64.59375 19.921875 59.515625 
L 19.921875 54.6875 
L 34.71875 54.6875 
L 34.71875 47.703125 
L 19.921875 47.703125 
L 19.921875 0 
L 10.890625 0 
L 10.890625 47.703125 
L 2.296875 47.703125 
L 2.296875 54.6875 
L 10.890625 54.6875 
L 10.890625 58.5 
Q 10.890625 67.625 15.140625 71.796875 
Q 19.390625 75.984375 28.609375 75.984375 
z
" id="DejaVuSans-102"/>
      <path d="M -1.3125 -20.796875 
L 13.375 54.6875 
L 22.40625 54.6875 
L 15.765625 20.65625 
Q 15.578125 19.625 15.421875 18.359375 
Q 15.28125 17.09375 15.28125 15.828125 
Q 15.28125 11.28125 18.140625 8.828125 
Q 21 6.390625 26.3125 6.390625 
Q 33.546875 6.390625 37.984375 10.484375 
Q 42.4375 14.59375 44 22.796875 
L 50.203125 54.6875 
L 59.1875 54.6875 
L 51.03125 12.640625 
Q 50.828125 11.71875 50.75 11.03125 
Q 50.6875 10.359375 50.6875 9.8125 
Q 50.6875 8.296875 51.296875 7.59375 
Q 51.90625 6.890625 53.21875 6.890625 
Q 53.71875 6.890625 54.5625 7.125 
Q 55.421875 7.375 56.984375 8.015625 
L 55.609375 0.78125 
Q 53.46875 -0.296875 51.515625 -0.859375 
Q 49.5625 -1.421875 47.703125 -1.421875 
Q 44.484375 -1.421875 42.65625 0.625 
Q 40.828125 2.6875 40.828125 6.296875 
Q 38.09375 2.390625 34.296875 0.484375 
Q 30.515625 -1.421875 25.390625 -1.421875 
Q 20.84375 -1.421875 17.453125 0.671875 
Q 14.0625 2.78125 12.984375 6.203125 
L 7.71875 -20.796875 
z
" id="DejaVuSans-Oblique-956"/>
      <path d="M 10.59375 45.40625 
L 73.1875 45.40625 
L 73.1875 37.203125 
L 10.59375 37.203125 
z
M 10.59375 25.484375 
L 73.1875 25.484375 
L 73.1875 17.1875 
L 10.59375 17.1875 
z
" id="DejaVuSans-61"/>
      <path d="M 4.890625 31.390625 
L 31.203125 31.390625 
L 31.203125 23.390625 
L 4.890625 23.390625 
z
" id="DejaVuSans-45"/>
      <path d="M 11.71875 51.703125 
L 22.015625 51.703125 
L 22.015625 39.3125 
L 11.71875 39.3125 
z
M 11.71875 12.40625 
L 22.015625 12.40625 
L 22.015625 4 
L 14.015625 -11.625 
L 7.71875 -11.625 
L 11.71875 4 
z
" id="DejaVuSans-59"/>
      <path d="M 34.671875 47.5625 
Q 27.25 47.5625 22.21875 42.1875 
Q 16.890625 36.578125 15.140625 27.296875 
Q 13.1875 17.484375 16.3125 11.8125 
Q 19.390625 6.203125 26.65625 6.203125 
Q 33.84375 6.203125 39.109375 11.859375 
Q 44.4375 17.53125 46.34375 27.296875 
Q 48.046875 36.234375 45.015625 42.1875 
Q 42.1875 47.5625 34.671875 47.5625 
z
M 36.078125 54.734375 
L 65.921875 54.6875 
L 64.15625 45.703125 
L 54.109375 45.703125 
Q 57.90625 38.09375 55.859375 27.296875 
Q 53.21875 13.875 45.0625 6.25 
Q 36.859375 -1.421875 25.140625 -1.421875 
Q 13.375 -1.421875 8.203125 6.25 
Q 3.03125 13.875 5.671875 27.296875 
Q 8.25 40.765625 16.40625 48.390625 
Q 23.1875 54.734375 36.078125 54.734375 
z
" id="DejaVuSans-Oblique-963"/>
     </defs>
     <use transform="translate(0 0.015625)" xlink:href="#DejaVuSans-102"/>
     <use transform="translate(35.205078 0.015625)" xlink:href="#DejaVuSans-111"/>
     <use transform="translate(96.386719 0.015625)" xlink:href="#DejaVuSans-114"/>
     <use transform="translate(137.5 0.015625)" xlink:href="#DejaVuSans-32"/>
     <use transform="translate(169.287109 0.015625)" xlink:href="#DejaVuSans-Oblique-956"/>
     <use transform="translate(252.392578 0.015625)" xlink:href="#DejaVuSans-61"/>
     <use transform="translate(355.664062 0.015625)" xlink:href="#DejaVuSans-45"/>
     <use transform="translate(391.748047 0.015625)" xlink:href="#DejaVuSans-48"/>
     <use transform="translate(455.371094 0.015625)" xlink:href="#DejaVuSans-46"/>
     <use transform="translate(487.158203 0.015625)" xlink:href="#DejaVuSans-53"/>
     <use transform="translate(550.78125 0.015625)" xlink:href="#DejaVuSans-59"/>
     <use transform="translate(584.472656 0.015625)" xlink:href="#DejaVuSans-32"/>
     <use transform="translate(616.259766 0.015625)" xlink:href="#DejaVuSans-Oblique-963"/>
     <use transform="translate(699.121094 0.015625)" xlink:href="#DejaVuSans-61"/>
     <use transform="translate(802.392578 0.015625)" xlink:href="#DejaVuSans-49"/>
    </g>
   </g>
   <g id="legend_1">
    <g id="patch_5">
     <path d="M 59.95 66.312813 
L 140.835469 66.312813 
Q 142.535469 66.312813 142.535469 64.612813 
L 142.535469 40.51 
Q 142.535469 38.81 140.835469 38.81 
L 59.95 38.81 
Q 58.25 38.81 58.25 40.51 
L 58.25 64.612813 
Q 58.25 66.312813 59.95 66.312813 
z
" style="fill:#ffffff;opacity:0.8;stroke:#cccccc;stroke-linejoin:miter;"/>
    </g>
    <g id="line2d_48">
     <path d="M 61.65 45.693672 
L 78.65 45.693672 
" style="fill:none;stroke:#000000;stroke-linecap:square;stroke-width:1.5;"/>
    </g>
    <g id="line2d_49"/>
    <g id="text_15">
     <!-- MCF method -->
     <g transform="translate(85.45 48.668672)scale(0.085 -0.085)">
      <defs>
       <path d="M 9.8125 72.90625 
L 24.515625 72.90625 
L 43.109375 23.296875 
L 61.8125 72.90625 
L 76.515625 72.90625 
L 76.515625 0 
L 66.890625 0 
L 66.890625 64.015625 
L 48.09375 14.015625 
L 38.1875 14.015625 
L 19.390625 64.015625 
L 19.390625 0 
L 9.8125 0 
z
" id="DejaVuSans-77"/>
       <path d="M 54.890625 33.015625 
L 54.890625 0 
L 45.90625 0 
L 45.90625 32.71875 
Q 45.90625 40.484375 42.875 44.328125 
Q 39.84375 48.1875 33.796875 48.1875 
Q 26.515625 48.1875 22.3125 43.546875 
Q 18.109375 38.921875 18.109375 30.90625 
L 18.109375 0 
L 9.078125 0 
L 9.078125 75.984375 
L 18.109375 75.984375 
L 18.109375 46.1875 
Q 21.34375 51.125 25.703125 53.5625 
Q 30.078125 56 35.796875 56 
Q 45.21875 56 50.046875 50.171875 
Q 54.890625 44.34375 54.890625 33.015625 
z
" id="DejaVuSans-104"/>
       <path d="M 45.40625 46.390625 
L 45.40625 75.984375 
L 54.390625 75.984375 
L 54.390625 0 
L 45.40625 0 
L 45.40625 8.203125 
Q 42.578125 3.328125 38.25 0.953125 
Q 33.9375 -1.421875 27.875 -1.421875 
Q 17.96875 -1.421875 11.734375 6.484375 
Q 5.515625 14.40625 5.515625 27.296875 
Q 5.515625 40.1875 11.734375 48.09375 
Q 17.96875 56 27.875 56 
Q 33.9375 56 38.25 53.625 
Q 42.578125 51.265625 45.40625 46.390625 
z
M 14.796875 27.296875 
Q 14.796875 17.390625 18.875 11.75 
Q 22.953125 6.109375 30.078125 6.109375 
Q 37.203125 6.109375 41.296875 11.75 
Q 45.40625 17.390625 45.40625 27.296875 
Q 45.40625 37.203125 41.296875 42.84375 
Q 37.203125 48.484375 30.078125 48.484375 
Q 22.953125 48.484375 18.875 42.84375 
Q 14.796875 37.203125 14.796875 27.296875 
z
" id="DejaVuSans-100"/>
      </defs>
      <use xlink:href="#DejaVuSans-77"/>
      <use x="86.279297" xlink:href="#DejaVuSans-67"/>
      <use x="156.103516" xlink:href="#DejaVuSans-70"/>
      <use x="213.623047" xlink:href="#DejaVuSans-32"/>
      <use x="245.410156" xlink:href="#DejaVuSans-109"/>
      <use x="342.822266" xlink:href="#DejaVuSans-101"/>
      <use x="404.345703" xlink:href="#DejaVuSans-116"/>
      <use x="443.554688" xlink:href="#DejaVuSans-104"/>
      <use x="506.933594" xlink:href="#DejaVuSans-111"/>
      <use x="568.115234" xlink:href="#DejaVuSans-100"/>
     </g>
    </g>
    <g id="PathCollection_2">
     <g>
      <use style="fill:#1f77b4;stroke:#1f77b4;" x="70.15" xlink:href="#me6b513aea2" y="58.913828"/>
     </g>
    </g>
    <g id="text_16">
     <!-- Simulation -->
     <g transform="translate(85.45 61.145078)scale(0.085 -0.085)">
      <defs>
       <path d="M 53.515625 70.515625 
L 53.515625 60.890625 
Q 47.90625 63.578125 42.921875 64.890625 
Q 37.9375 66.21875 33.296875 66.21875 
Q 25.25 66.21875 20.875 63.09375 
Q 16.5 59.96875 16.5 54.203125 
Q 16.5 49.359375 19.40625 46.890625 
Q 22.3125 44.4375 30.421875 42.921875 
L 36.375 41.703125 
Q 47.40625 39.59375 52.65625 34.296875 
Q 57.90625 29 57.90625 20.125 
Q 57.90625 9.515625 50.796875 4.046875 
Q 43.703125 -1.421875 29.984375 -1.421875 
Q 24.8125 -1.421875 18.96875 -0.25 
Q 13.140625 0.921875 6.890625 3.21875 
L 6.890625 13.375 
Q 12.890625 10.015625 18.65625 8.296875 
Q 24.421875 6.59375 29.984375 6.59375 
Q 38.421875 6.59375 43.015625 9.90625 
Q 47.609375 13.234375 47.609375 19.390625 
Q 47.609375 24.75 44.3125 27.78125 
Q 41.015625 30.8125 33.5 32.328125 
L 27.484375 33.5 
Q 16.453125 35.6875 11.515625 40.375 
Q 6.59375 45.0625 6.59375 53.421875 
Q 6.59375 63.09375 13.40625 68.65625 
Q 20.21875 74.21875 32.171875 74.21875 
Q 37.3125 74.21875 42.625 73.28125 
Q 47.953125 72.359375 53.515625 70.515625 
z
" id="DejaVuSans-83"/>
       <path d="M 8.5 21.578125 
L 8.5 54.6875 
L 17.484375 54.6875 
L 17.484375 21.921875 
Q 17.484375 14.15625 20.5 10.265625 
Q 23.53125 6.390625 29.59375 6.390625 
Q 36.859375 6.390625 41.078125 11.03125 
Q 45.3125 15.671875 45.3125 23.6875 
L 45.3125 54.6875 
L 54.296875 54.6875 
L 54.296875 0 
L 45.3125 0 
L 45.3125 8.40625 
Q 42.046875 3.421875 37.71875 1 
Q 33.40625 -1.421875 27.6875 -1.421875 
Q 18.265625 -1.421875 13.375 4.4375 
Q 8.5 10.296875 8.5 21.578125 
z
M 31.109375 56 
z
" id="DejaVuSans-117"/>
      </defs>
      <use xlink:href="#DejaVuSans-83"/>
      <use x="63.476562" xlink:href="#DejaVuSans-105"/>
      <use x="91.259766" xlink:href="#DejaVuSans-109"/>
      <use x="188.671875" xlink:href="#DejaVuSans-117"/>
      <use x="252.050781" xlink:href="#DejaVuSans-108"/>
      <use x="279.833984" xlink:href="#DejaVuSans-97"/>
      <use x="341.113281" xlink:href="#DejaVuSans-116"/>
      <use x="380.322266" xlink:href="#DejaVuSans-105"/>
      <use x="408.105469" xlink:href="#DejaVuSans-111"/>
      <use x="469.287109" xlink:href="#DejaVuSans-110"/>
     </g>
    </g>
   </g>
  </g>
  <g id="text_17">
   <!-- STATIONARY FIRING RATE -->
   <g transform="translate(140.01375 14.878125)scale(0.12 -0.12)">
    <defs>
     <path d="M -0.296875 72.90625 
L 61.375 72.90625 
L 61.375 64.59375 
L 35.5 64.59375 
L 35.5 0 
L 25.59375 0 
L 25.59375 64.59375 
L -0.296875 64.59375 
z
" id="DejaVuSans-84"/>
     <path d="M 34.1875 63.1875 
L 20.796875 26.90625 
L 47.609375 26.90625 
z
M 28.609375 72.90625 
L 39.796875 72.90625 
L 67.578125 0 
L 57.328125 0 
L 50.6875 18.703125 
L 17.828125 18.703125 
L 11.1875 0 
L 0.78125 0 
z
" id="DejaVuSans-65"/>
     <path d="M 9.8125 72.90625 
L 19.671875 72.90625 
L 19.671875 0 
L 9.8125 0 
z
" id="DejaVuSans-73"/>
     <path d="M 39.40625 66.21875 
Q 28.65625 66.21875 22.328125 58.203125 
Q 16.015625 50.203125 16.015625 36.375 
Q 16.015625 22.609375 22.328125 14.59375 
Q 28.65625 6.59375 39.40625 6.59375 
Q 50.140625 6.59375 56.421875 14.59375 
Q 62.703125 22.609375 62.703125 36.375 
Q 62.703125 50.203125 56.421875 58.203125 
Q 50.140625 66.21875 39.40625 66.21875 
z
M 39.40625 74.21875 
Q 54.734375 74.21875 63.90625 63.9375 
Q 73.09375 53.65625 73.09375 36.375 
Q 73.09375 19.140625 63.90625 8.859375 
Q 54.734375 -1.421875 39.40625 -1.421875 
Q 24.03125 -1.421875 14.8125 8.828125 
Q 5.609375 19.09375 5.609375 36.375 
Q 5.609375 53.65625 14.8125 63.9375 
Q 24.03125 74.21875 39.40625 74.21875 
z
" id="DejaVuSans-79"/>
     <path d="M 9.8125 72.90625 
L 23.09375 72.90625 
L 55.421875 11.921875 
L 55.421875 72.90625 
L 64.984375 72.90625 
L 64.984375 0 
L 51.703125 0 
L 19.390625 60.984375 
L 19.390625 0 
L 9.8125 0 
z
" id="DejaVuSans-78"/>
     <path d="M 44.390625 34.1875 
Q 47.5625 33.109375 50.5625 29.59375 
Q 53.5625 26.078125 56.59375 19.921875 
L 66.609375 0 
L 56 0 
L 46.6875 18.703125 
Q 43.0625 26.03125 39.671875 28.421875 
Q 36.28125 30.8125 30.421875 30.8125 
L 19.671875 30.8125 
L 19.671875 0 
L 9.8125 0 
L 9.8125 72.90625 
L 32.078125 72.90625 
Q 44.578125 72.90625 50.734375 67.671875 
Q 56.890625 62.453125 56.890625 51.90625 
Q 56.890625 45.015625 53.6875 40.46875 
Q 50.484375 35.9375 44.390625 34.1875 
z
M 19.671875 64.796875 
L 19.671875 38.921875 
L 32.078125 38.921875 
Q 39.203125 38.921875 42.84375 42.21875 
Q 46.484375 45.515625 46.484375 51.90625 
Q 46.484375 58.296875 42.84375 61.546875 
Q 39.203125 64.796875 32.078125 64.796875 
z
" id="DejaVuSans-82"/>
     <path d="M -0.203125 72.90625 
L 10.40625 72.90625 
L 30.609375 42.921875 
L 50.6875 72.90625 
L 61.28125 72.90625 
L 35.5 34.71875 
L 35.5 0 
L 25.59375 0 
L 25.59375 34.71875 
z
" id="DejaVuSans-89"/>
     <path d="M 59.515625 10.40625 
L 59.515625 29.984375 
L 43.40625 29.984375 
L 43.40625 38.09375 
L 69.28125 38.09375 
L 69.28125 6.78125 
Q 63.578125 2.734375 56.6875 0.65625 
Q 49.8125 -1.421875 42 -1.421875 
Q 24.90625 -1.421875 15.25 8.5625 
Q 5.609375 18.5625 5.609375 36.375 
Q 5.609375 54.25 15.25 64.234375 
Q 24.90625 74.21875 42 74.21875 
Q 49.125 74.21875 55.546875 72.453125 
Q 61.96875 70.703125 67.390625 67.28125 
L 67.390625 56.78125 
Q 61.921875 61.421875 55.765625 63.765625 
Q 49.609375 66.109375 42.828125 66.109375 
Q 29.4375 66.109375 22.71875 58.640625 
Q 16.015625 51.171875 16.015625 36.375 
Q 16.015625 21.625 22.71875 14.15625 
Q 29.4375 6.6875 42.828125 6.6875 
Q 48.046875 6.6875 52.140625 7.59375 
Q 56.25 8.5 59.515625 10.40625 
z
" id="DejaVuSans-71"/>
     <path d="M 9.8125 72.90625 
L 55.90625 72.90625 
L 55.90625 64.59375 
L 19.671875 64.59375 
L 19.671875 43.015625 
L 54.390625 43.015625 
L 54.390625 34.71875 
L 19.671875 34.71875 
L 19.671875 8.296875 
L 56.78125 8.296875 
L 56.78125 0 
L 9.8125 0 
z
" id="DejaVuSans-69"/>
    </defs>
    <use xlink:href="#DejaVuSans-83"/>
    <use x="63.476562" xlink:href="#DejaVuSans-84"/>
    <use x="116.810547" xlink:href="#DejaVuSans-65"/>
    <use x="177.46875" xlink:href="#DejaVuSans-84"/>
    <use x="238.552734" xlink:href="#DejaVuSans-73"/>
    <use x="268.044922" xlink:href="#DejaVuSans-79"/>
    <use x="346.755859" xlink:href="#DejaVuSans-78"/>
    <use x="421.560547" xlink:href="#DejaVuSans-65"/>
    <use x="489.96875" xlink:href="#DejaVuSans-82"/>
    <use x="553.076172" xlink:href="#DejaVuSans-89"/>
    <use x="614.160156" xlink:href="#DejaVuSans-32"/>
    <use x="645.947266" xlink:href="#DejaVuSans-70"/>
    <use x="703.466797" xlink:href="#DejaVuSans-73"/>
    <use x="732.958984" xlink:href="#DejaVuSans-82"/>
    <use x="802.441406" xlink:href="#DejaVuSans-73"/>
    <use x="831.933594" xlink:href="#DejaVuSans-78"/>
    <use x="906.738281" xlink:href="#DejaVuSans-71"/>
    <use x="984.228516" xlink:href="#DejaVuSans-32"/>
    <use x="1016.015625" xlink:href="#DejaVuSans-82"/>
    <use x="1081.498047" xlink:href="#DejaVuSans-65"/>
    <use x="1142.15625" xlink:href="#DejaVuSans-84"/>
    <use x="1203.240234" xlink:href="#DejaVuSans-69"/>
   </g>
  </g>
 </g>
 <defs>
  <clipPath id="p5726e41d90">
   <rect height="221.76" width="334.8" x="54" y="34.56"/>
  </clipPath>
 </defs>
</svg>
